<?xml version="1.0" encoding="UTF-8"?>
<svg id="Logos" xmlns="http://www.w3.org/2000/svg" version="1.1" viewBox="0 0 1315.4 357.8">
  <!-- Generator: Adobe Illustrator 29.1.0, SVG Export Plug-In . SVG Version: 2.1.0 Build 142)  -->
  <defs>
    <style>
      .st0 {
        fill: #fff;
        fill-rule: evenodd;
      }

      .st1 {
        fill: #ffc000;
      }
    </style>
  </defs>
  <g>
    <g>
      <path d="M498.6,69.4v155c0,3.5-3,6.4-6.6,6.4l-34.7-.3q0-60.5,0-60.6c0-3.5-3-6.4-6.6-6.4h-55.4c-3.7,0-6.6,2.9-6.6,6.4l-.2,60.6c-33,0-34.5.3-34.5.3-3.7,0-6.6-2.9-6.6-6.4V69.4c0-3.5,3-6.4,6.6-6.4l34.5.2c0,58.5.2,59.8.2,59.8,0,3.5,3,6.4,6.6,6.4h55.4c3.7,0,6.6-2.9,6.6-6.4v-59.9c38.6,0,34.7-.1,34.7-.1,3.7,0,6.6,2.9,6.6,6.4Z"/>
      <path d="M541.2,82.5h24.8c3.2,0,5.9,2.5,5.9,5.7v137.3c0,3.1-2.6,5.7-5.9,5.7h-24.8c-3.2,0-5.9-2.5-5.9-5.7V88.1c0-3.1,2.6-5.7,5.9-5.7Z"/>
      <path d="M745.9,90l-49.8,139c-.8,2.3-3.1,3.8-5.6,3.8h-38c-2.5,0-4.7-1.5-5.6-3.8l-50-139c-1.3-3.7,1.5-7.5,5.6-7.5h25.1c2.5,0,4.8,1.6,5.6,3.9l32.7,94c1.8,5.2,9.4,5.2,11.2,0l32.6-94c.8-2.3,3-3.9,5.6-3.9h25.1c4,0,6.9,3.8,5.6,7.5Z"/>
      <path d="M873.9,208.5v16.9c0,3.1-2.6,5.7-5.9,5.7h-91.1c-3.2,0-5.9-2.5-5.9-5.7V88.1c0-3.1,2.6-5.7,5.9-5.7h90.1c3.2,0,5.9,2.5,5.9,5.7v16.9c0,3.1-2.6,5.7-5.9,5.7h-53.5c-3.2,0-5.9,2.5-5.9,5.7,0,0,0,0,0,25.9,0,0-.7,0,54.8,0v27.8c-57.3,0-55,.2-55,.2,0,27.3.2,26.8.2,26.8,0,3.1,2.6,5.7,5.9,5.7h54.5c3.2,0,5.9,2.5,5.9,5.7Z"/>
      <path d="M1095.1,69.4v155c0,3.5-3,6.4-6.6,6.4h-28.1c-3.7,0-6.6-2.9-6.6-6.4l-.4-98.5c0-6.3-37.1,46.5-37.1,46.5-1.2,1.7-3.3,2.8-5.5,2.8h-13.7c-2.2,0-4.3-1-5.5-2.8,0,0-36.8-53.2-36.8-46.9l.2,98.8c0,3.5-3,6.4-6.6,6.4h-28.1c-3.7,0-6.6-2.9-6.6-6.4V69.4c0-3.5,3-6.4,6.6-6.4h37.6c2.2,0,4.3,1.1,5.5,2.8l35.5,51.2c2.6,3.8,8.4,3.8,11,0l35.5-51.2c1.2-1.8,3.3-2.8,5.5-2.8h37.6c3.7,0,6.6,2.9,6.6,6.4Z"/>
      <path d="M1292.9,186.4c-4.2,9.9-10,18.3-17.5,25.4-2.5,2.4-2.6,6.2-.3,8.8l22.9,24.2c-41.9,0-44.2.3-44.2.3-1.9,0-3.8-.8-5-2.2l-7.5-8.5c-1.6-1.8-4.2-2.6-6.7-2-7.2,1.6-15.1,2.4-23.6,2.4-19.3,0-35.7-3.8-49.1-11.4-13.5-7.6-23.6-18-30.3-31.2-6.7-13.2-10.1-28.1-10.1-44.8s3.4-31.1,10.1-44.3c6.7-13.1,16.8-23.6,30.3-31.3,13.5-7.7,29.9-11.6,49.1-11.6s35.2,3.9,48.7,11.6c13.5,7.7,23.6,18.2,30.4,31.4,6.8,13.2,10.2,27.9,10.2,44.2s-2.5,27.4-7.5,39.2ZM1175.9,186.2c8.1,9.8,19.8,14.7,35.1,14.7h.5l-10.7-12c-3.7-4.1-.7-10.6,5-10.6h28.4c1.9,0,3.8.8,5,2.2h0c3,3.3,7.5,6.1,9.7,2.3,1.9-3.2,4.5-9.9,5.8-13.7,2.3-6.9,3.4-14.4,3.4-22.7s-1.8-19.3-5.5-27.2c-3.7-8-9.1-14.2-16.2-18.8-7.1-4.6-15.6-6.9-25.4-6.9-15.2,0-26.8,4.9-35,14.8-8.2,9.9-12.3,22.8-12.3,38.7s4.1,29.3,12.2,39.1Z"/>
    </g>
    <g>
      <circle class="st1" cx="152.9" cy="152" r="127.2"/>
      <path d="M152.9,290.3c-76,0-137.8-61.8-137.8-137.8S76.9,14.7,152.9,14.7s137.8,61.8,137.8,137.8-61.8,137.8-137.8,137.8ZM152.9,26.3c-69.6,0-126.2,56.6-126.2,126.2s56.6,126.2,126.2,126.2,126.2-56.6,126.2-126.2S222.4,26.3,152.9,26.3Z"/>
      <g>
        <path class="st0" d="M173.6,110.9c-8.4-3.9-13.2-13-11.7-22,8.3,3.9,13.2,13,11.7,22Z"/>
        <path d="M153.4,227.8c5.6-10.1,8.5-13.5,12.2-17.4h-24.5c3.7,3.9,6.6,7.4,12.2,17.4Z"/>
        <path d="M216.8,142.9c-1.4,1.3-1.4,3.4-.2,4.8l.5.5c19.7-16.8,31.6-29.8,25.6-40.1-6.5-9.1-33.9-4.8-67.5,10.4,1.7-3.4,2.5-7.2,2.5-10.9s-.1-2.8-.4-4.1c-.8-4.8-3.1-9.5-6.8-13.2-2-2-4.3-3.6-6.8-4.8v-.3h.1l2.6-5.6c.4-.9,0-2-.9-2.4-.9-.4-2,0-2.4.9l-2.8,6.1c-4.7-1.4-9.7-1.4-14.3,0l-2.8-6.1c-.4-.9-1.5-1.3-2.4-.9-.9.4-1.3,1.5-.9,2.4l2.5,5.4.2.4c-2.5,1.2-4.8,2.8-6.8,4.8-4.9,4.9-7.3,11.3-7.1,17.8,0,3.5.8,6.9,2.4,10.2-8.7-3.9-56.9-23.9-66.7-10.2-8.8,12.4,18.2,34.1,25.5,40.3l.5-.5c1.3-1.4,1.2-3.5-.1-4.8-3.6-3.3-9.1-8.9-13-14.2-5.1-7.1-5.2-11.2-2.8-13.6,7.7-7.2,36.2,2.3,45,5.7,8.5,3.3,17.6,7.4,27.1,12.4-45.2,26.2-75.9,57.5-68.6,70,4.5,7.9,23.4,6.8,47.7-1.7l-.9-1.4c-.8-1.4-2.4-2-3.9-1.5-16.8,5.1-27.3,7.5-31,2.1-5.1-8.8,20.6-39,60.5-62l3-1.7c1,.6,2,1.1,3,1.7,39.9,23,65.6,53.2,60.5,62-3.6,5.4-14.1,3-31-2.1-1.5-.5-3.1.1-3.9,1.5l-.9,1.4c24.3,8.6,43.2,9.6,47.7,1.7,7.2-12.5-23.4-43.8-68.6-70,31.8-16.8,60.5-24.2,71-18.9,9.4,4.8-7.1,21.5-14.6,28.6ZM132.9,110.8c-1.5-9.1,3.3-18.2,11.7-22,1.5,9.1-3.4,18.2-11.7,22ZM173.6,110.8c-8.4-3.9-13.2-13-11.7-22,8.3,3.9,13.2,13,11.7,22Z"/>
        <path d="M125.3,187.6c1.3,4.5,3.5,8.7,6.4,12.4h43.4c2.9-3.7,5-7.9,6.4-12.4h-56.1Z"/>
        <path d="M180.9,162.4c-8.3-6.1-17.6-12.2-27.6-18-10,5.8-19.3,11.9-27.5,18-1.6,4.7-2.4,9.9-2.2,14.9h59.5c.2-5-.6-10.2-2.2-14.9Z"/>
        <path class="st0" d="M132.9,110.8c-1.5-9.1,3.3-18.2,11.7-22,1.5,9.1-3.4,18.2-11.7,22Z"/>
        <path class="st0" d="M91.3,146.1s.7-1.7-1-3.3c-7.5-7.1-24-23.8-14.6-28.6,10.5-5.3,39.2,2.3,71,19.1-16,9.3-27.1,17-38.6,26.3-12.8-9.4-15.1-11.5-16.8-13.5Z"/>
        <path class="st0" d="M217.1,200.9c-3.6,5.4-14.1,3-31-2.1-.8-.2-1.5-.2-2.2,0,5.1-7.5,6.3-21.2,4.5-31.2,0,0,0,0,0-.1,0,0,0,0,0,0-.5-3.9-1.4-7-2.4-8.4,22.4,18,34.8,35.6,31.1,41.9Z"/>
        <path class="st0" d="M199.4,159.8c-11.3-9.5-22.8-17.2-38.9-26.5,31.8-16.8,60.5-24.2,71-18.9,9.4,4.8-7.1,21.5-14.6,28.6-1.3,1.3-1,1.8-1,3.3-1.7,2-3.7,4.1-16.5,13.5Z"/>
        <path class="st0" d="M121.3,158.7c-1,1.4-1.9,4.5-2.4,8.4,0,0,0,0,0,0,0,0,0,.1,0,.1-1.8,10-.7,23.8,4.5,31.2-.7-.3-1.5-.3-2.2,0-16.8,5.1-27.3,7.5-31,2.1-3.7-6.3,8.8-23.9,31.1-41.9Z"/>
      </g>
    </g>
  </g>
  <g>
    <path d="M357.5,313.2v29.6h-10v-75.5h27.8c8.3,0,14.7,2.1,19.4,6.3,4.7,4.2,7,9.8,7,16.7s-2.3,13-6.9,16.9c-4.6,4-11.1,5.9-19.7,5.9h-17.8ZM357.5,305.1h17.9c5.3,0,9.4-1.3,12.2-3.8,2.8-2.5,4.3-6.1,4.3-10.9s-1.4-8.1-4.3-10.8c-2.8-2.7-6.7-4.1-11.7-4.2h-18.5v29.7Z"/>
    <path d="M467.7,267.3v51.3c0,7.1-2.3,12.9-6.7,17.5-4.4,4.5-10.5,7.1-18.1,7.6h-2.6c-8.3.1-14.8-2.1-19.8-6.6-4.9-4.5-7.4-10.6-7.5-18.4v-51.4h9.9v51.1c0,5.5,1.5,9.7,4.5,12.7,3,3,7.3,4.5,12.9,4.5s9.9-1.5,12.9-4.5c3-3,4.5-7.2,4.5-12.7v-51.2h10Z"/>
    <path d="M493.4,334.6h35.8v8.1h-45.8v-75.5h10v67.3Z"/>
    <path d="M562.8,309.1c-8.5-2.5-14.8-5.5-18.6-9-3.9-3.6-5.8-8-5.8-13.2s2.4-10.9,7.1-14.8c4.8-3.9,10.9-5.8,18.5-5.8s9.8,1,13.9,3c4.1,2,7.2,4.8,9.4,8.3,2.2,3.5,3.3,7.4,3.3,11.6h-10c0-4.6-1.5-8.2-4.4-10.8-2.9-2.6-7-3.9-12.3-3.9s-8.7,1.1-11.5,3.2c-2.7,2.2-4.1,5.2-4.1,9s1.3,5.7,3.9,7.8c2.6,2.1,7.1,4.1,13.3,5.8,6.3,1.8,11.2,3.7,14.7,5.8,3.5,2.1,6.2,4.6,7.9,7.4,1.7,2.8,2.6,6.2,2.6,10,0,6.1-2.4,11-7.2,14.7-4.8,3.7-11.1,5.5-19.1,5.5s-10-1-14.5-3c-4.5-2-8-4.7-10.4-8.2-2.4-3.5-3.7-7.4-3.7-11.8h10c0,4.6,1.7,8.2,5.1,10.8,3.4,2.6,7.9,4,13.5,4s9.3-1.1,12.1-3.2c2.8-2.1,4.2-5.1,4.2-8.8s-1.3-6.6-3.9-8.6c-2.6-2-7.3-4-14.1-6Z"/>
    <path d="M646.2,307.9h-32.7v26.8h38v8.1h-48v-75.5h47.4v8.1h-37.5v24.3h32.7v8.1Z"/>
  </g>
</svg>