<?xml version="1.0" encoding="UTF-8"?>
<svg width="56px" height="56px" viewBox="0 0 56 56" version="1.1" xmlns="http://www.w3.org/2000/svg" xmlns:xlink="http://www.w3.org/1999/xlink">
    <title>hivemq-operator</title>
    <g id="assets" stroke="none" stroke-width="1" fill="none" fill-rule="evenodd">
        <g id="05-icon-hivemq-k8s-operator" transform="translate(2.08, 1.8308)">
            <path d="M25.9202131,8.77265379 C16.1482161,8.77265379 8.1981168,16.7190374 8.1981168,26.4864673 C8.1981168,36.2538972 16.1482161,44.2002808 25.9202131,44.2002808 C35.6922101,44.2002808 43.6423093,36.2538972 43.6423093,26.4864673 C43.6423093,16.7190374 35.6922101,8.77265379 25.9202131,8.77265379 Z" id="Path" fill="#FFC000" fill-rule="nonzero"></path>
            <path d="M50.9794405,30.7818897 C50.4300615,30.4936559 49.8947311,30.3805796 49.0739899,30.3207156 C48.2081448,30.2578955 47.260965,30.3561906 46.3359674,30.0790427 C45.6290947,29.8676713 45.1773173,29.2113851 44.9200038,28.6859128 C44.9983809,27.9823267 45.0427453,27.2676547 45.0427453,26.5426359 C45.0427453,22.8155514 43.9713452,19.3397476 42.1250471,16.3997631 C42.1302229,15.8144268 42.2537038,15.0280659 42.7993858,14.5314169 C43.5136526,13.8817823 44.4105527,13.5617689 45.1632686,13.1301573 C45.8775353,12.7214566 46.3108276,12.3881401 46.6820097,11.8907521 C47.0524523,11.3941031 47.1530116,10.5818751 46.6997554,10.0120591 L46.6997554,10.0120591 C46.6997554,10.0120591 46.6997554,10.0120591 46.6997554,10.0120591 C46.6997554,10.0120591 46.6997554,10.0120591 46.6997554,10.0120591 L46.6997554,10.0120591 C46.2457598,9.4429821 45.4316732,9.35872915 44.8638089,9.6077927 C44.2959447,9.85759531 43.8737436,10.204954 43.3147522,10.8087668 C42.7254452,11.4458373 42.2115576,12.2477185 41.4189138,12.7975799 C40.8140793,13.2173665 40.0214354,13.1619369 39.4498742,13.0362966 C36.4663687,10.0512293 32.4979738,8.05059122 28.0748438,7.55542037 C27.6201087,7.18662894 27.0810813,6.60055358 27.0322805,5.86444885 C26.9686916,4.9014524 27.2762847,4.00053707 27.407899,3.14322633 C27.5328588,2.33025926 27.5417316,1.78335414 27.3834986,1.18397568 C27.2252656,0.584597233 26.6522255,0.000739060977 25.9239101,0 L25.9239101,0 C25.9239101,0 25.9239101,0 25.9239101,0 C25.9239101,0 25.9239101,0 25.9239101,0 L25.9239101,0 C25.1955946,0.000739060977 24.6225546,0.584597233 24.4643216,1.18397568 C24.3060886,1.78335414 24.3149614,2.33025926 24.4399211,3.14322633 C24.5715355,4.00053707 24.8791286,4.9014524 24.8155397,5.86444885 C24.7667388,6.60055358 24.2277115,7.18662894 23.7729764,7.55542037 C19.3565011,8.04985216 15.3947608,10.0445777 12.4119947,13.0222544 C11.8404335,13.1471557 11.0477897,13.2018462 10.4429551,12.7813205 C9.65031127,12.2307201 9.13716312,11.4280999 8.54859551,10.7902903 C7.99108297,10.1857384 7.56888182,9.83764066 7.00101759,9.58783805 C6.43389277,9.33729638 5.61980615,9.42081027 5.16507112,9.98988722 L5.16507112,9.98988722 C5.16507112,9.98988722 5.16507112,9.98988722 5.16507112,9.98988722 C5.16507112,9.98988722 5.16507112,9.98988722 5.16507112,9.98988722 L5.16507112,9.98988722 C4.7110755,10.5597032 4.81089538,11.3719312 5.18059866,11.8685802 C5.55104134,12.3659683 5.98433358,12.7000238 6.69786091,13.1094636 C7.45057678,13.5410752 8.34747692,13.8625667 9.06026484,14.5129404 C9.60594688,15.0103284 9.72794896,15.7974284 9.7323854,16.3820256 C7.87943258,19.3257055 6.80433545,22.8066827 6.80433545,26.5411578 C6.80433545,27.2595251 6.84722103,27.9668064 6.92485872,28.66448 C6.66606642,29.1892133 6.21428902,29.8447604 5.50741635,30.0553927 C4.58241876,30.3310625 3.63523896,30.2320283 2.76939389,30.2941094 C1.94865262,30.3532343 1.41332227,30.4655716 0.863943203,30.7530663 C0.314564134,31.040561 -0.127600985,31.7286268 0.033589644,32.4388644 L0.033589644,32.4388644 C0.033589644,32.4388644 0.033589644,32.4388644 0.033589644,32.4388644 C0.033589644,32.4388644 0.033589644,32.4388644 0.033589644,32.4388644 L0.033589644,32.4388644 C0.196259086,33.149102 0.893519465,33.5770183 1.51314216,33.5984511 C2.13350425,33.6191448 2.66439816,33.48907 3.42968394,33.1867941 C4.2371159,32.8675198 5.04750548,32.3679145 6.00060053,32.215668 C6.72743717,32.0996354 7.41730348,32.4920768 7.87795376,32.8527385 C9.31609951,36.9589613 12.1154927,40.4236792 15.737106,42.7088557 C15.986286,43.2380234 16.2177203,44.0007343 15.9419216,44.6851048 C15.5810912,45.5801076 14.9126677,46.2578265 14.4209623,46.9732376 C13.9551362,47.6509565 13.7096532,48.1394758 13.5913482,48.748462 C13.4730431,49.3567092 13.7355325,50.1319842 14.3913861,50.4483023 L14.3913861,50.4483023 C14.3913861,50.4483023 14.3913861,50.4483023 14.3913861,50.4483023 C14.3913861,50.4483023 14.3913861,50.4483023 14.3913861,50.4483023 L14.3913861,50.4483023 C15.0479791,50.7638813 15.8177013,50.4867334 16.2206779,50.0152125 C16.6236545,49.5436916 16.8536099,49.0477817 17.093917,48.2606818 C17.3475335,47.4307163 17.4621415,46.4861964 17.9375799,45.645884 C18.2998891,45.0058572 19.0370775,44.711711 19.6064205,44.5764628 C21.584333,45.2682239 23.7086481,45.6488403 25.9231707,45.6488403 C28.1376933,45.6488403 30.2479596,45.2704411 32.2206963,44.5823753 C32.7892999,44.7183625 33.5264883,45.0132479 33.8887975,45.6540137 C34.3634965,46.494326 34.4766257,47.439585 34.7302421,48.2695505 C34.9698099,49.0559114 35.1990259,49.5525604 35.6020025,50.0248203 C36.0042396,50.4963412 36.7739618,50.7749672 37.4305549,50.4593882 L37.4305549,50.4593882 C37.4305549,50.4593882 37.4305549,50.4593882 37.4305549,50.4593882 C37.4305549,50.4593882 37.4305549,50.4593882 37.4305549,50.4593882 L37.4305549,50.4593882 C38.0871479,50.1430701 38.3503766,49.3685342 38.232811,48.760287 C38.1152453,48.1513008 37.8705018,47.6627815 37.405415,46.9843235 C36.9151885,46.2689125 36.246765,45.5897154 35.886674,44.6947126 C35.6108753,44.0103421 35.843049,43.2476312 36.0929684,42.7192026 C39.7175393,40.4377213 42.5206296,36.9759597 43.9624724,32.8712151 C44.4231226,32.5112924 45.1137284,32.1195901 45.8398256,32.2363617 C46.7929206,32.3893473 47.6033102,32.8904306 48.4100028,33.209705 C49.1745491,33.51272 49.7061825,33.6435338 50.3258052,33.6235791 C50.9454278,33.6036245 51.6434276,33.1757082 51.8060971,32.4654706 L51.8060971,32.4654706 C51.8060971,32.4654706 51.8060971,32.4654706 51.8060971,32.4654706 C51.8060971,32.4654706 51.8060971,32.4654706 51.8060971,32.4654706 L51.8060971,32.4654706 C51.9680271,31.755233 51.5266014,31.0664282 50.9772223,30.7789334 L50.9794405,30.7818897 Z M25.9231707,10.3239428 C34.8847781,10.3239428 42.1501869,17.5852169 42.1501869,26.543375 C42.1501869,35.5015331 34.8855175,42.7620681 25.9231707,42.7620681 C16.9608239,42.7620681 9.69615448,35.500794 9.69615448,26.543375 C9.69615448,17.5859559 16.9608239,10.3239428 25.9231707,10.3239428 Z" id="Shape" fill="#000000" fill-rule="nonzero"></path>
            <g id="Group" transform="translate(13.2838, 16.6629)">
                <path d="M15.5489314,4.73222236 C14.3754932,4.1860563 13.700415,2.91339329 13.9052306,1.63851311 C15.0764506,2.18172293 15.753747,3.45734217 15.5489314,4.73222236 Z" id="Path" fill="#FFFFFF"></path>
                <path d="M8.76487624,15.5099486 C8.95416432,16.1396285 9.25288457,16.7330945 9.66029758,17.2474809 L15.7515288,17.2474809 C16.16116,16.7330945 16.457662,16.1403676 16.6469501,15.5099486 L8.76487624,15.5099486 Z" id="Path" fill="#000000" fill-rule="nonzero"></path>
                <path d="M12.7059132,21.1526791 C13.4911629,19.7381164 13.9007942,19.2525534 14.4228152,18.7041701 L10.9890112,18.7041701 C11.5139898,19.2525534 11.9214028,19.7381164 12.7059132,21.1526791 Z" id="Path" fill="#000000" fill-rule="nonzero"></path>
                <path d="M16.5759671,11.9624559 C15.4099229,11.1095795 14.107828,10.2537469 12.7059132,9.43560641 C11.3039983,10.254486 10.0019034,11.1095795 8.8388169,11.9624559 C8.60812205,12.6290889 8.50534454,13.345239 8.52900555,14.0539985 L16.8835602,14.0539985 C16.9072212,13.345239 16.8044437,12.6290889 16.5767065,11.9624559 L16.5759671,11.9624559 Z" id="Path" fill="#000000" fill-rule="nonzero"></path>
                <path d="M9.83849455,4.72926611 C11.0097145,4.18310005 11.6870109,2.91043705 11.4821953,1.63555686 C10.3087571,2.17876668 9.63367894,3.45438593 9.83849455,4.72926611 Z" id="Path"></path>
                <path d="M21.6224168,9.23827713 C21.4309105,9.41934707 21.4205588,9.72088395 21.5987558,9.91525699 L21.664563,9.98842402 C24.4321617,7.62638514 26.0965658,5.80016547 25.2669517,4.35899656 C24.3530452,3.08633356 20.5044341,3.69014638 15.7833232,5.81272951 C16.0221516,5.33233987 16.1404566,4.80465033 16.1404566,4.27991704 C16.1404566,4.085544 16.1249291,3.89191003 16.0909164,3.69975417 C15.9777872,3.02277432 15.6605818,2.3716616 15.1378213,1.85210173 C14.8538892,1.56608513 14.5285503,1.34288872 14.1817686,1.1802953 L14.1972962,1.14334225 L14.2002538,1.14334225 L14.562563,0.356242314 C14.6202367,0.230601948 14.5655206,0.0805725697 14.4390821,0.0229258135 C14.313383,-0.0347209427 14.1632835,0.0199695696 14.1056098,0.146348997 L13.7115061,0.999225364 C13.0578707,0.7996789 12.3539556,0.7996789 11.7003203,0.999225364 L11.3062166,0.146348997 C11.2485429,0.0207086306 11.0991827,-0.0347209427 10.9727442,0.0229258135 C10.8463057,0.0805725697 10.7915896,0.229862887 10.8492633,0.356242314 L11.2012208,1.11747512 L11.2300577,1.17807812 C10.883276,1.34362778 10.5608948,1.56682419 10.274005,1.85284079 C9.58857514,2.53795032 9.25510278,3.44330001 9.27358795,4.34569347 C9.28172142,4.83347371 9.391893,5.31903677 9.6070603,5.77060303 C8.38630009,5.22443697 1.60963903,2.41970056 0.244694531,4.33239037 C-0.991593225,6.07213991 2.80747764,9.11928832 3.82342225,9.98768496 L3.88922943,9.91451793 C4.06742641,9.72014489 4.05707472,9.41860801 3.86852605,9.23753807 C3.36942662,8.76749529 2.58713449,7.99369845 2.04145245,7.23763907 C1.32496751,6.24581924 1.30648234,5.66048294 1.65326401,5.33529611 C2.73205818,4.32204352 6.73594466,5.66343919 7.97814767,6.13569915 C9.17007103,6.59243884 10.4566384,7.17481889 11.7823944,7.87323151 C5.43680735,11.5500599 1.12532774,15.9430383 2.14422997,17.7034816 C2.78233782,18.8083777 5.43680735,18.6642608 8.84695037,17.4618086 L8.72346947,17.260045 C8.60812205,17.0686282 8.38482127,16.982158 8.16965397,17.0471954 C5.8042924,17.7633455 4.33139455,18.1047917 3.82194343,17.3435589 C3.11063433,16.1130223 6.7181989,11.8722905 12.32364,8.63889868 L12.7436229,8.39722574 C12.885589,8.47630527 13.027555,8.55760197 13.1665634,8.63889868 C18.7720045,11.8722905 22.3795691,16.1130223 21.66826,17.3435589 C21.1588089,18.1047917 19.685911,17.7633455 17.3205495,17.0471954 C17.1053822,16.981419 16.8820814,17.0678891 16.766734,17.260045 L16.6432531,17.4618086 C20.0541355,18.6635218 22.7078656,18.8083777 23.3459735,17.7034816 C24.3619181,15.9422993 20.0533961,11.5493208 13.707809,7.87323151 C18.1738246,5.5193223 22.1984145,4.47207289 23.67427,5.22295885 C25.0000259,5.89772152 22.6738529,8.24350106 21.6238956,9.23827713 L21.6224168,9.23827713 Z M9.83923396,4.73000517 C9.63441835,3.45438593 10.3094965,2.17950574 11.4829347,1.63629593 C11.6877503,2.91191517 11.0104539,4.18457817 9.83923396,4.73000517 Z M15.5496708,4.73000517 C14.3762326,4.18383911 13.7011544,2.91117611 13.90597,1.63629593 C15.07719,2.17950574 15.7544864,3.45512499 15.5496708,4.73000517 Z" id="Shape" fill="#000000" fill-rule="nonzero"></path>
                <path d="M9.83849455,4.73000517 C9.63367894,3.45438593 10.3087571,2.17950574 11.4821953,1.63629593 C11.6870109,2.91191517 11.0097145,4.18457817 9.83849455,4.73000517 Z" id="Path" fill="#FFFFFF"></path>
                <path d="M3.99200694,9.67949654 C3.99200694,9.67949654 4.09256623,9.43486735 3.85669554,9.21241 C2.80452002,8.21985111 0.480565222,5.87185438 1.80632117,5.19709171 C3.28217665,4.44620576 7.3156394,5.5193223 11.781655,7.87323151 C9.52868321,9.17767413 7.9818447,10.254486 6.35441088,11.5685364 C4.54951948,10.2478344 4.22787763,9.9529491 3.99274635,9.67949654 L3.99200694,9.67949654 Z" id="Path" fill="#FFFFFF"></path>
                <path d="M21.6549507,17.369426 C21.1454996,18.1306588 19.6726017,17.7892126 17.3072401,17.0730625 C17.1992868,17.0412829 17.0920728,17.0442392 16.9944712,17.0834094 C17.716132,16.03616 17.874365,14.1072108 17.6222273,12.7007778 C17.6192697,12.6956044 17.6192697,12.6874747 17.6192697,12.6800841 C17.6163121,12.6749107 17.6163121,12.6719544 17.6163121,12.6697372 C17.5401532,12.1183978 17.4196299,11.6830908 17.2798821,11.4887178 C20.42236,14.0155673 22.1740141,16.4825528 21.6542113,17.369426 L21.6549507,17.369426 Z" id="Path" fill="#FFFFFF"></path>
                <path d="M19.167587,11.5973598 C17.5763841,10.2618766 15.9585626,9.18063038 13.7055908,7.87618775 C18.1716064,5.52227854 22.1961963,4.47502914 23.6720518,5.22591509 C24.9978077,5.90067776 22.6716347,8.2464573 21.6216774,9.24123338 C21.4353469,9.41712989 21.4804507,9.49768754 21.486366,9.70831991 C21.2512347,9.98251154 20.9724784,10.2766578 19.167587,11.5973598 L19.167587,11.5973598 Z" id="Path" fill="#FFFFFF"></path>
                <path d="M8.20070904,11.4554601 C8.06170061,11.6498331 7.94043793,12.08514 7.86427906,12.6364795 C7.86427906,12.6394357 7.86427906,12.6416529 7.86132143,12.6468264 C7.86132143,12.654956 7.86132143,12.6623466 7.85836381,12.6675201 C7.60622617,14.0739531 7.76371977,16.0029023 8.48611997,17.0501517 C8.38925771,17.0109814 8.28130435,17.0080252 8.173351,17.0398048 C5.80798944,17.7559549 4.33509158,18.0974011 3.82564047,17.3361683 C3.30583766,16.4492951 5.05675238,13.9823095 8.19996963,11.4554601 L8.20070904,11.4554601 Z" id="Path" fill="#FFFFFF"></path>
            </g>
        </g>
    </g>
</svg>