<?xml version="1.0" encoding="UTF-8"?>
<svg width="56px" height="56px" viewBox="0 0 56 56" version="1.1" xmlns="http://www.w3.org/2000/svg" xmlns:xlink="http://www.w3.org/1999/xlink">
    <title>hivemq-testcontainers</title>
    <g id="assets" stroke="none" stroke-width="1" fill="none" fill-rule="evenodd">
        <g id="05-hivemq-testcontainer-icon" transform="translate(6.8985, 6.8985)">
            <circle id="Oval" fill="#FFC000" cx="21.1015385" cy="21.1015385" r="19.4553191"></circle>
            <path d="M21.1015385,42.2030769 C9.46576105,42.2030769 0,32.7373159 0,21.1015385 C0,9.46576105 9.46576105,0 21.1015385,0 C32.7373159,0 42.2030769,9.46576105 42.2030769,21.1015385 C42.2030769,32.7373159 32.7373159,42.2030769 21.1015385,42.2030769 Z M21.1015385,1.7883928 C10.4534926,1.7883928 1.7883928,10.4534926 1.7883928,21.1015385 C1.7883928,31.7495843 10.4534926,40.4146841 21.1015385,40.4146841 C31.7495843,40.4146841 40.4146841,31.7495843 40.4146841,21.1015385 C40.4146841,10.4534926 31.7495843,1.7883928 21.1015385,1.7883928 Z" id="Shape" fill="#000000" fill-rule="nonzero"></path>
            <g id="Group" transform="translate(5.9937, 1.7061)" fill-rule="nonzero">
                <path d="M27.9857283,27.2598953 L2.28225859,27.2598953 C1.53397709,27.2598953 0.912903437,26.6463044 0.912903437,25.8905401 L0.912903437,12.907856 C0.912903437,12.1595745 1.52649427,11.5385008 2.28225859,11.5385008 L27.9782455,11.5385008 C28.726527,11.5385008 29.3476007,12.1520917 29.3476007,12.907856 L29.3476007,25.8905401 C29.3476007,26.6463044 28.7340098,27.2598953 27.9857283,27.2598953 Z" id="Path" fill="#FFFFFF"></path>
                <path d="M28.2551097,10.9698069 L27.9782455,10.9698069 L2.28225859,10.9698069 L1.96049755,10.9698069 C0.882972177,10.9698069 0,11.8452962 0,12.9303044 L0,25.8830573 C0,26.9605827 0.875489362,27.8435548 1.96049755,27.8435548 L2.28225859,27.8435548 L27.9782455,27.8435548 L28.2551097,27.8435548 C29.332635,27.8435548 30.2156072,26.9680655 30.2156072,25.8830573 L30.2156072,12.9228216 C30.2156072,11.8452962 29.332635,10.9698069 28.2551097,10.9698069 Z M2.28225859,26.6837185 C1.84825532,26.6837185 1.49656301,26.3320262 1.49656301,25.8980229 L1.49656301,12.907856 C1.49656301,12.4738527 1.84825532,12.1221604 2.28225859,12.1221604 L27.9782455,12.1221604 C28.4122488,12.1221604 28.7639411,12.4738527 28.7639411,12.907856 L28.7639411,25.8905401 C28.7639411,26.3245434 28.4122488,26.6762357 27.9782455,26.6762357 L2.28225859,26.6762357 L2.28225859,26.6837185 Z" id="Shape" fill="#000000"></path>
                <g transform="translate(4.4747, 14.2697)" fill="#000000" id="Path">
                    <path d="M0.434003273,10.3412504 C0.194553191,10.3412504 0,10.1466972 0,9.90724714 L0,0.434003273 C0,0.194553191 0.194553191,0 0.434003273,0 C0.673453355,0 0.868006547,0.194553191 0.868006547,0.434003273 L0.868006547,9.89976432 C0.868006547,10.1466972 0.673453355,10.3412504 0.434003273,10.3412504 Z"></path>
                    <path d="M5.54476596,10.3412504 C5.30531588,10.3412504 5.11076268,10.1466972 5.11076268,9.90724714 L5.11076268,0.434003273 C5.11076268,0.194553191 5.30531588,0 5.54476596,0 C5.78421604,0 5.97876923,0.194553191 5.97876923,0.434003273 L5.97876923,9.89976432 C5.97876923,10.1466972 5.78421604,10.3412504 5.54476596,10.3412504 Z"></path>
                    <path d="M10.7453224,10.3412504 C10.5058723,10.3412504 10.3113191,10.1466972 10.3113191,9.90724714 L10.3113191,0.434003273 C10.3113191,0.194553191 10.5058723,0 10.7453224,0 C10.9847725,0 11.1793257,0.194553191 11.1793257,0.434003273 L11.1793257,9.89976432 C11.1793257,10.1466972 10.9847725,10.3412504 10.7453224,10.3412504 Z"></path>
                    <path d="M15.7737741,10.3412504 C15.5343241,10.3412504 15.3397709,10.1466972 15.3397709,9.90724714 L15.3397709,0.434003273 C15.3397709,0.194553191 15.5343241,0 15.7737741,0 C16.0132242,0 16.2077774,0.194553191 16.2077774,0.434003273 L16.2077774,9.89976432 C16.2002946,10.1466972 16.0132242,10.3412504 15.7737741,10.3412504 Z"></path>
                    <path d="M20.8845368,10.3412504 C20.6450867,10.3412504 20.4505336,10.1466972 20.4505336,9.90724714 L20.4505336,0.434003273 C20.4505336,0.194553191 20.6450867,0 20.8845368,0 C21.1239869,0 21.3185401,0.194553191 21.3185401,0.434003273 L21.3185401,9.89976432 C21.3110573,10.1466972 21.1239869,10.3412504 20.8845368,10.3412504 Z"></path>
                </g>
                <path d="M25.7857807,11.0745663 C24.8653944,10.6031489 16.7540229,6.45766939 14.9731129,6.39780687 C14.9656301,6.39780687 14.9656301,6.39780687 14.9581473,6.39780687 C14.9581473,6.39780687 14.9581473,6.39780687 14.9581473,6.39780687 C14.8982848,6.39780687 14.8234566,6.39780687 14.7411457,6.4127725 C12.5337152,6.6597054 4.58696563,10.6630115 3.65161375,11.1344288 L4.83389853,11.8976759 C7.68485106,10.3412504 12.2718167,8.01409493 14.202383,7.40798691 C14.5091784,7.31819313 14.72618,7.27329624 14.8683535,7.26581342 C14.8758363,7.26581342 14.8833191,7.26581342 14.890802,7.26581342 C14.9057676,7.26581342 14.9207332,7.26581342 14.928216,7.26581342 C16.0431555,7.31071031 21.3185401,10.0269722 24.5960131,11.8452962 L25.7857807,11.0745663 Z" id="Path" fill="#000000"></path>
                <path d="M17.2029918,4.60941408 C16.8812308,4.60941408 16.6268151,4.8713126 16.6268151,5.18559083 C16.6268151,5.70938789 16.3948478,6.17332242 16.020707,6.48011784 C15.9683273,6.5100491 15.9159476,6.53998036 15.8635679,6.57739444 C15.6316007,6.71956792 15.4295646,6.84677578 14.7935254,6.87670704 C13.918036,6.8093617 13.2221342,6.07604583 13.2221342,5.17810802 C13.2221342,4.50465466 13.6187234,3.89106383 14.2397971,3.62168249 C14.5615581,3.479509 15.1377349,3.15774795 15.4744615,2.73871031 C15.6091522,2.57408838 15.7962226,2.28225859 15.8037054,1.99042881 C15.8261538,0.965283142 15.7962226,0 15.7962226,0 L14.6363863,0.0149656301 C14.6363863,0.0149656301 14.72618,1.62377087 14.5765237,1.94553191 C14.4493159,2.22987889 13.9030704,2.43191489 13.6037578,2.5366743 C13.5214468,2.56660556 13.4466187,2.58905401 13.394239,2.61898527 C12.3241964,3.09040262 11.6357774,4.10058265 11.6357774,5.19307365 C11.6357774,6.77194763 12.9153388,8.051509 14.4942128,8.051509 C14.5989722,8.051509 14.7037316,8.051509 14.8010082,8.04402619 C14.8459051,8.04402619 14.8833191,8.051509 14.928216,8.051509 C16.50709,8.051509 17.7866514,6.77194763 17.7866514,5.19307365 C17.7866514,4.8713126 17.5247529,4.60941408 17.2029918,4.60941408 Z" id="Path" fill="#000000"></path>
            </g>
        </g>
    </g>
</svg>