<?xml version="1.0" encoding="UTF-8"?>
<svg width="56px" height="56px" viewBox="0 0 56 56" version="1.1" xmlns="http://www.w3.org/2000/svg" xmlns:xlink="http://www.w3.org/1999/xlink">
    <title>hivemq-cli</title>
    <g id="assets" stroke="none" stroke-width="1" fill="none" fill-rule="evenodd">
        <g id="01-hivemq-bee-sw-copy-3" transform="translate(6.8154, 6.8154)" fill-rule="nonzero">
            <g id="05-mqtt-cli-icon">
                <circle id="Oval" fill="#FFC000" cx="21.1430769" cy="21.1430769" r="20.2218962"></circle>
                <path d="M19.4135284,19.7415076 L3.91931384,31.3903717 C3.91931384,31.3903717 0.921180701,25.4979531 0.921180701,21.1430769 C0.921180701,15.9073637 4.73141718,9.56294645 4.73141718,9.56294645 L19.4135284,19.7415076 Z" id="Path" fill="#FFFFFF"></path>
                <path d="M21.1430769,42.2861538 C9.48823593,42.2861538 0,32.8016534 0,21.1430769 C0,9.48450041 9.48823593,0 21.1430769,0 C32.7979179,0 42.2861538,9.48823593 42.2861538,21.1430769 C42.2861538,32.7979179 32.8016534,42.2861538 21.1430769,42.2861538 Z M21.1430769,1.8423614 C10.5005635,1.8423614 1.8423614,10.5005635 1.8423614,21.1430769 C1.8423614,31.7855904 10.5005635,40.4437924 21.1430769,40.4437924 C31.7855904,40.4437924 40.4437924,31.7855904 40.4437924,21.1430769 C40.4437924,10.5005635 31.7855904,1.8423614 21.1430769,1.8423614 Z" id="Shape" fill="#000000"></path>
                <path d="M5.10422267,32.4243653 L2.79865605,29.0489441 L15.4583535,20.3959717 L3.1654847,11.2603694 L5.60328894,7.98057766 L20.1964946,18.8270508 C20.7266323,19.2210569 21.0336131,19.8470243 21.0205625,20.5074154 C21.0075119,21.1678065 20.6760398,21.7811568 20.1307494,22.1539102 L5.10422267,32.4243653 Z" id="Path" fill="#000000"></path>
                <polygon id="Path" fill="#000000" points="38.6447631 31.4471517 24.2293685 31.4471517 24.2293685 27.3604863 39.7975465 27.3604863"></polygon>
            </g>
        </g>
    </g>
</svg>